<svg xmlns="http://www.w3.org/2000/svg" style="display:none">
  <symbol id="i-home" viewBox="0 0 24 24"><path fill="currentColor" d="M10 20v-6h4v6h5v-8h3L12 3 2 12h3v8h5z"/></symbol>
  <symbol id="i-mail" viewBox="0 0 24 24"><path fill="currentColor" d="M20 4H4c-1.1 0-2 .9-2 2v12c0 1.1.9 2 2 2h16c1.1 0 2-.9 2-2V6c0-1.1-.9-2-2-2zm0 4-8 5-8-5V6l8 5 8-5v2z"/></symbol>
  <symbol id="i-card" viewBox="0 0 24 24"><path fill="currentColor" d="M20 4H4c-1.11 0-1.99.89-1.99 2L2 18c0 1.11.89 2 2 2h16c1.11 0 2-.89 2-2V6c0-1.11-.89-2-2-2zm0 14H4v-6h16v6zm0-10H4V6h16v2z"/></symbol>
  <symbol id="i-rocket" viewBox="0 0 24 24"><path fill="currentColor" d="M9 19l-4.99-5L9 9l-.71-1.71L7.24 5.59 4.43 8.41 3 5.5 5.5 3l2.83 2.83 1.41-1.41L9 7l5-5 9 9-5 5-1.41-1.41L9 19zm6.71-6.71a1.5 1.5 0 0 0-2.12 0 1.5 1.5 0 0 0 0 2.12 1.5 1.5 0 0 0 2.12 0 1.5 1.5 0 0 0 0-2.12z"/></symbol>
  <symbol id="i-lock" viewBox="0 0 24 24"><path fill="currentColor" d="M18 8h-1V6c0-2.76-2.24-5-5-5S7 3.24 7 6v2H6c-1.1 0-2 .9-2 2v10c0 1.1.9 2 2 2h12c1.1 0 2-.9 2-2V10c0-1.1-.9-2-2-2zm-6 9c-1.1 0-2-.9-2-2s.9-2 2-2 2 .9 2 2-.9 2-2 2zm3.1-9H8.9V6c0-1.71 1.39-3.1 3.1-3.1 1.71 0 3.1 1.39 3.1 3.1v2z"/></symbol>
  <symbol id="i-user" viewBox="0 0 24 24"><path fill="currentColor" d="M12 12c2.21 0 4-1.79 4-4s-1.79-4-4-4-4 1.79-4 4 1.79 4 4 4zm0 2c-2.67 0-8 1.34-8 4v2h16v-2c0-2.66-5.33-4-8-4z"/></symbol>
  <symbol id="i-user-plus" viewBox="0 0 24 24"><path fill="currentColor" d="M15 12c2.21 0 4-1.79 4-4s-1.79-4-4-4-4 1.79-4 4 1.79 4 4 4zm-9-2V7H4v3H1v2h3v3h2v-3h3v-2H6zm9 4c-2.67 0-8 1.34-8 4v2h16v-2c0-2.66-5.33-4-8-4z"/></symbol>
  <symbol id="i-key" viewBox="0 0 24 24"><path fill="currentColor" d="M12.65 10A5.99 5.99 0 0 0 7 6c-3.31 0-6 2.69-6 6s2.69 6 6 6a5.99 5.99 0 0 0 5.65-4H17v4h4v-4h2v-4H12.65zM7 14c-1.1 0-2-.9-2-2s.9-2 2-2 2 .9 2 2-.9 2-2 2z"/></symbol>
  <symbol id="i-search" viewBox="0 0 24 24"><path fill="currentColor" d="M15.5 14h-.79l-.28-.27A6.471 6.471 0 0 0 16 9.5 6.5 6.5 0 1 0 9.5 16c1.61 0 3.09-.59 4.23-1.57l.27.28v.79l5 4.99L20.49 19l-4.99-5zm-6 0C7.01 14 5 11.99 5 9.5S7.01 5 9.5 5 14 7.01 14 9.5 11.99 14 9.5 14z"/></symbol>
  <symbol id="i-chat" viewBox="0 0 24 24"><path fill="currentColor" d="M20 2H4c-1.1 0-2 .9-2 2v18l4-4h14c1.1 0 2-.9 2-2V4c0-1.1-.9-2-2-2zm0 14H6l-2 2V4h16v12z"/></symbol>
  <symbol id="i-edit" viewBox="0 0 24 24"><path fill="currentColor" d="M3 17.25V21h3.75L17.81 9.94l-3.75-3.75L3 17.25zM20.71 7.04c.39-.39.39-1.02 0-1.41l-2.34-2.34c-.39-.39-1.02-.39-1.41 0l-1.83 1.83 3.75 3.75 1.83-1.83z"/></symbol>
  <symbol id="i-trash" viewBox="0 0 24 24"><path fill="currentColor" d="M6 19c0 1.1.9 2 2 2h8c1.1 0 2-.9 2-2V7H6v12zM19 4h-3.5l-1-1h-5l-1 1H5v2h14V4z"/></symbol>
  <symbol id="i-add" viewBox="0 0 24 24"><path fill="currentColor" d="M19 13h-6v6h-2v-6H5v-2h6V5h2v6h6v2z"/></symbol>
  <symbol id="i-arrow" viewBox="0 0 24 24"><path fill="currentColor" d="M12 4l-1.41 1.41L16.17 11H4v2h12.17l-5.58 5.59L12 20l8-8-8-8z"/></symbol>
  <symbol id="i-check" viewBox="0 0 24 24"><path fill="currentColor" d="M9 16.17L4.83 12l-1.42 1.41L9 19 21 7l-1.41-1.41L9 16.17z"/></symbol>
  <symbol id="i-spark" viewBox="0 0 24 24"><path fill="currentColor" d="M7 2v11h3v9l7-12h-4l4-8H7z"/></symbol>
  <symbol id="i-send" viewBox="0 0 24 24"><path fill="currentColor" d="M2.01 21L23 12 2.01 3 2 10l15 2-15 2z"/></symbol>
</svg>
